<svg xmlns="http://www.w3.org/2000/svg" viewBox="0 0 64 64"><title>deliveryman</title><g id="deliveryman"><path d="M14,42.63l.16-.47a1,1,0,0,0-1.9-.64l-.16.47A1,1,0,0,0,14,42.63Z"/><path d="M55.66,53.8,50.17,36.65A10.94,10.94,0,0,0,39.7,29H37V27.79a10.92,10.92,0,0,0,2.31-1.59A1,1,0,0,0,38,24.72,9,9,0,0,1,23,18V16.19a6.29,6.29,0,0,0,2,.72c1,.16,13.17.11,13.7,0C41.57,16.61,41,15,41,18a9,9,0,0,1-.87,3.86,1,1,0,0,0,1.8.86,10.87,10.87,0,0,0,.88-2.8A4,4,0,0,0,46,16c0-1.36.1-3.27-2-4.47A10,10,0,0,0,34,1c-3.9,0-5.58-.18-7.87.78a1,1,0,0,0,.78,1.84C28.78,2.83,30,3,34,3a8,8,0,0,1,7.94,7H22.06a7.92,7.92,0,0,1,2-4.3,1,1,0,0,0-1.48-1.34A9.84,9.84,0,0,0,20,11.53c-2.05,1.15-2,3-2,4.47a4,4,0,0,0,3.17,3.91A11,11,0,0,0,27,27.79V29H24.3a10.94,10.94,0,0,0-10.47,7.65l-.35,1.1a1,1,0,0,0,1.9.6l.35-1.1A9,9,0,0,1,24.3,31h3.12a5,5,0,0,0,9.16,0H39.7a9,9,0,0,1,8.57,6.25L53.76,54.4A5,5,0,0,1,50,60.89V55a6,6,0,0,0-5-5.91V47a1,1,0,0,0-2,0v9H21V37h7v5a1,1,0,0,0,1,1h6a1,1,0,0,0,1-1V37h7v6a1,1,0,0,0,2,0V36a1,1,0,0,0-1-1H20a1,1,0,0,0-1,1V49.09A6,6,0,0,0,14,55v5.89a5.06,5.06,0,0,1-3.76-6.49l2.59-8.11a1,1,0,0,0-1.9-.6L8.34,53.8A7.06,7.06,0,0,0,15,63c10,0,9.28,0,10-.09a6,6,0,0,0,4.89-4.85c0-.1-.26-.06,4.18-.06a6,6,0,0,0,2,3.51C38.3,63.47,40.18,63,49,63A7.05,7.05,0,0,0,55.66,53.8ZM26,15a4,4,0,0,1-3.86-3C44,12,42,11.82,41.72,12.43,40.45,15.73,38.7,15,26,15Zm18,1a2,2,0,0,1-1,1.73c0-4.37-.11-3,.42-4.15A3,3,0,0,1,44,16ZM20,15a2,2,0,0,1,.58-1.42c.53,1.11.42-.24.42,4.15C19.89,17.09,20,16.1,20,15ZM31.5,32A3,3,0,0,1,29,29v-.42a11.21,11.21,0,0,0,6,0V29A3,3,0,0,1,31.5,32ZM34,37v4H30V37ZM16,61V55a4,4,0,0,1,3-3.87V57a1,1,0,0,0,1,1h7.86a3.94,3.94,0,0,1-2.16,2.61C24.57,61.14,24.58,61,16,61Zm24,0a4,4,0,0,1-3.86-3H44a1,1,0,0,0,1-1V51.13A4,4,0,0,1,48,55v6Z"/></g></svg>