<!-- icon666.com - MILLIONS OF FREE VECTOR ICONS --><svg version="1.1" id="Capa_1" xmlns="http://www.w3.org/2000/svg" xmlns:xlink="http://www.w3.org/1999/xlink" x="0px" y="0px" viewBox="0 0 512 512" style="enable-background:new 0 0 512 512;" xml:space="preserve"><path style="" d="M500.231,155.636C475.841,42.279,332.41,31.694,268.215,116.475 c-4.494,5.936-8.914,12.219-12.186,18.937c0,0-7.698-13.001-12.192-18.937C179.641,31.694,36.21,42.279,11.82,155.636 C-9.203,253.348,49.816,340.748,142.831,372.93c17.946,6.218,35.566,13.789,52.559,22.246c15.714,7.821,36.452,17.745,49.785,32.059 c5.718,6.139,15.399,6.441,21.402,0.581c5.977-5.836,13.197-10.952,18.18-14.363c11.779-8.063,24.494-14.772,37.351-20.932 c15.308-7.334,31.062-14.036,47.112-19.591C462.235,340.748,521.253,253.348,500.231,155.636z" fill="#F74A4F"></path><path style="" d="M369.221,372.93c-0.01,0-25.607,8.863-52.557,22.248c-18.716,9.295-38.079,20.771-49.971,32.98 c-5.836,5.991-15.548,5.926-21.39-0.06c-5.076-5.201-11.506-10.27-18.664-15.094c11.029-14.067,33.116-27.422,54.362-37.979 c26.94-13.385,52.547-22.248,52.557-22.248c93.013-32.184,152.027-119.582,131.012-217.288 c-6.327-29.377-20.644-51.856-39.503-67.546c35.814,12.663,65.271,41.729,75.166,87.689 C521.249,253.348,462.234,340.746,369.221,372.93z" fill="#CD3F48"></path><circle style="" cx="123.58" cy="376.699" r="74.75" fill="#6BECA7"></circle><circle style="" cx="123.58" cy="376.699" r="74.75" fill="#FFDB76"></circle><path style="" d="M198.325,376.7c0,41.288-33.457,74.755-74.745,74.755c-26.88,0-50.452-14.197-63.616-35.503 c11.4,7.038,24.835,11.099,39.212,11.099c41.288,0,74.755-33.467,74.755-74.755c0-14.378-4.061-27.813-11.099-39.212 C184.138,326.248,198.325,349.82,198.325,376.7z" fill="#FFC764"></path><path d="M507.582,154.054c-5.683-26.414-17.603-48.557-35.427-65.815c-16.222-15.706-37.044-26.722-60.218-31.857 c-26.443-5.86-54.384-4.015-80.804,5.333c-27.601,9.767-51.431,27.133-68.913,50.22c-2.051,2.708-4.236,5.677-6.362,8.86 c-2.061-3.224-4.253-6.519-6.026-8.86c-17.482-23.088-41.312-40.453-68.913-50.22c-26.42-9.349-54.361-11.194-80.803-5.333 c-23.175,5.135-43.998,16.151-60.22,31.857c-17.824,17.258-29.744,39.401-35.427,65.815c-10.545,49.011-2.346,97.001,23.712,138.782 c8.047,12.903,17.703,24.855,28.664,35.707c-5.879,8.142-10.332,17.458-12.947,27.636c-1.034,4.022,1.39,8.121,5.412,9.154 c4.02,1.032,8.12-1.389,9.154-5.412c7.63-29.701,34.407-50.444,65.117-50.444c37.069,0,67.227,30.158,67.227,67.228 c0,37.069-30.158,67.227-67.227,67.227c-27.348,0-51.755-16.337-62.18-41.619c-1.583-3.839-5.978-5.669-9.818-4.085 c-3.84,1.583-5.669,5.979-4.085,9.818c12.755,30.936,42.62,50.926,76.083,50.926c35.014,0,64.97-21.997,76.824-52.889 c13.677,6.895,29.047,15.307,39.267,26.279c4.179,4.488,9.858,7.039,15.989,7.185c0.184,0.004,0.367,0.007,0.55,0.007 c5.881,0,11.409-2.245,15.618-6.355c5.413-5.285,12.022-10.011,17.175-13.538c9.896-6.774,21.107-13.052,36.352-20.356 c16.361-7.838,31.513-14.141,46.322-19.266c62.11-21.49,109.374-66.43,129.673-123.298c1.396-3.912-0.643-8.214-4.554-9.61 c-3.913-1.397-8.214,0.643-9.61,4.554c-18.757,52.549-62.651,94.152-120.427,114.142c-15.353,5.314-31.022,11.828-47.902,19.916 c-15.966,7.649-27.793,14.283-38.349,21.508c-5.654,3.87-12.945,9.094-19.186,15.188c-1.419,1.385-3.319,2.125-5.305,2.074 c-2.048-0.048-3.944-0.901-5.34-2.4c-12.655-13.587-30.771-23.113-46.156-30.791c0.855-4.747,1.326-9.625,1.326-14.615 c0-45.362-36.905-82.267-82.266-82.267c-21.765,0-41.904,8.53-56.824,22.761c-9.857-9.858-18.551-20.673-25.816-32.322 c-23.949-38.4-31.477-82.544-21.771-127.66c9.691-45.041,40.379-76.442,84.197-86.152c23.352-5.175,49.11-3.46,72.533,4.828 c24.821,8.783,46.239,24.385,61.94,45.121c4.183,5.525,11.642,18.103,11.717,18.229c1.41,2.38,4.019,3.8,6.776,3.682 c2.764-0.112,5.243-1.733,6.455-4.22c3.139-6.444,7.535-12.559,11.421-17.691c15.701-20.735,37.119-36.338,61.94-45.121 c23.422-8.288,49.181-10.004,72.533-4.828c43.817,9.71,74.506,41.111,84.197,86.152c3.701,17.203,4.893,34.496,3.542,51.398 c-0.331,4.14,2.757,7.764,6.896,8.095c4.146,0.325,7.764-2.757,8.095-6.896C512.881,191.451,511.592,172.69,507.582,154.054z" fill="#000000" style="fill: rgb(0, 0, 0);"></path><path d="M113.055,416.556c0.127,0,0.254-0.003,0.381-0.01c2.363-0.12,4.531-1.344,5.854-3.305l43.612-64.666 c2.322-3.443,1.414-8.116-2.03-10.439c-3.441-2.322-8.116-1.414-10.439,2.03l-38.012,56.363l-16.147-19.376 c-2.659-3.192-7.401-3.622-10.591-0.963s-3.622,7.4-0.963,10.591l22.558,27.069C108.711,415.57,110.83,416.556,113.055,416.556z" fill="#000000" style="fill: rgb(0, 0, 0);"></path></svg>